<?xml version="1.0" standalone="no"?>
<!DOCTYPE svg PUBLIC "-//W3C//DTD SVG 20010904//EN"
 "http://www.w3.org/TR/2001/REC-SVG-20010904/DTD/svg10.dtd">
<svg version="1.0" xmlns="http://www.w3.org/2000/svg"
 width="512.000000pt" height="512.000000pt" viewBox="0 0 512.000000 512.000000"
 preserveAspectRatio="xMidYMid meet">

<g transform="translate(0.000000,512.000000) scale(0.100000,-0.100000)"
fill="#000000" stroke="none">
<path d="M1046 4749 c-451 -66 -813 -418 -892 -869 -8 -47 -18 -86 -23 -88
-39 -13 -100 -65 -116 -98 l-19 -39 82 -620 c66 -496 86 -625 101 -645 25 -35
79 -70 107 -70 16 0 25 -7 28 -23 3 -12 40 -282 81 -600 42 -318 83 -603 91
-634 85 -328 331 -581 660 -679 126 -37 318 -44 454 -16 412 85 720 433 755
854 4 40 -5 334 -19 652 -31 688 -30 626 -10 626 30 0 76 35 96 74 19 37 19
47 8 325 -6 157 -16 298 -21 312 -10 26 -45 49 -74 49 -8 0 -26 -11 -41 -24
l-28 -23 12 -279 c6 -153 10 -280 8 -282 -2 -2 -46 10 -97 27 -126 40 -195 57
-335 82 -151 27 -465 37 -614 20 -292 -33 -569 -117 -823 -248 -59 -31 -109
-54 -111 -52 -4 4 -146 1074 -149 1123 -2 26 7 33 118 97 343 197 691 290
1085 290 269 0 472 -35 741 -128 l136 -47 7 -90 c3 -49 6 -126 6 -171 0 -91
13 -140 40 -155 30 -16 68 -12 90 10 18 18 20 33 19 138 0 64 -4 163 -8 220
-10 135 -21 150 -150 207 -16 7 -30 30 -45 75 -72 210 -220 401 -409 528 -92
63 -132 83 -241 121 -154 55 -341 73 -500 50z m304 -153 c266 -48 498 -210
634 -442 19 -34 40 -73 45 -87 10 -25 9 -25 -17 -17 -15 5 -45 14 -68 20 -35
9 -46 19 -78 70 -71 115 -201 226 -338 290 -112 52 -178 65 -338 65 -137 -1
-150 -2 -240 -33 -52 -18 -126 -51 -163 -73 -137 -81 -275 -241 -329 -380 -21
-53 -26 -59 -86 -88 l-64 -32 7 33 c13 61 66 183 112 257 137 219 374 378 630
421 76 12 211 11 293 -4z m60 -281 c89 -33 189 -96 245 -155 l40 -42 -35 6
c-99 15 -137 17 -299 17 -241 0 -508 -39 -675 -98 -22 -7 -41 -11 -44 -9 -8 9
69 106 125 155 70 62 170 116 265 141 108 30 275 23 378 -15z m407 -1697 c40
-8 74 -16 76 -19 2 -2 17 -303 32 -668 23 -559 26 -675 15 -733 -35 -200 -205
-379 -405 -428 -71 -17 -205 -14 -273 5 -181 53 -325 196 -376 375 -8 30 -51
330 -96 665 -44 336 -82 626 -86 646 l-5 36 68 26 c96 35 301 85 419 102 124
18 524 13 631 -7z m321 -79 c18 -7 22 -16 22 -50 0 -22 12 -305 26 -628 28
-639 27 -680 -21 -822 -83 -244 -276 -429 -530 -509 -106 -34 -292 -39 -407
-11 -288 68 -511 280 -592 561 -14 49 -176 1232 -176 1285 0 15 13 27 46 43
26 13 48 22 49 20 2 -2 41 -291 88 -644 91 -685 99 -725 169 -841 71 -118 198
-230 324 -283 128 -55 318 -68 454 -30 285 80 487 326 507 615 2 44 -7 343
-21 665 -14 322 -26 601 -26 619 0 32 1 32 33 26 17 -4 42 -11 55 -16z"/>
<path d="M3744 4745 c-277 -49 -540 -218 -695 -446 -47 -70 -126 -231 -135
-277 -8 -37 -16 -45 -67 -62 -50 -16 -93 -54 -106 -93 -6 -18 -22 -306 -36
-641 -25 -582 -26 -611 -9 -648 17 -39 67 -78 99 -78 16 0 17 -12 11 -157 -4
-87 -9 -190 -12 -228 -5 -62 -3 -74 16 -98 26 -33 80 -37 109 -8 21 21 25 61
38 356 l8 169 48 14 c27 8 51 11 54 8 3 -2 -7 -285 -22 -628 -15 -343 -25
-655 -21 -693 23 -285 225 -526 506 -605 136 -38 326 -25 454 30 126 53 253
165 324 283 70 115 78 156 169 841 47 352 87 643 89 646 3 2 25 -6 50 -19 31
-17 44 -30 44 -45 0 -54 -162 -1237 -176 -1286 -81 -281 -304 -493 -592 -561
-115 -28 -301 -23 -407 11 -306 97 -518 342 -565 656 -9 59 -9 139 0 340 7
144 9 272 5 283 -3 12 -20 28 -37 37 -38 20 -81 5 -97 -34 -14 -36 -35 -519
-26 -602 45 -421 346 -758 755 -842 135 -28 328 -21 453 16 320 95 560 334
651 647 16 58 49 272 100 665 42 318 79 589 82 601 3 16 12 23 28 23 28 0 82
35 107 70 15 20 35 151 101 645 l81 620 -18 39 c-16 33 -77 85 -116 98 -5 2
-15 41 -23 88 -73 412 -378 742 -784 846 -123 32 -318 40 -438 19z m419 -169
c225 -67 410 -205 530 -397 46 -74 99 -196 112 -257 l7 -33 -64 32 c-60 29
-65 35 -86 88 -54 139 -192 299 -329 380 -37 22 -111 55 -163 73 -90 30 -103
32 -240 33 -160 0 -225 -12 -338 -65 -137 -64 -267 -175 -338 -290 -38 -62
-38 -62 -136 -86 -38 -9 -36 5 13 90 137 238 364 399 634 452 108 21 289 12
398 -20z m-79 -246 c143 -36 277 -125 361 -241 21 -27 36 -52 34 -54 -2 -2
-42 7 -87 21 -111 32 -254 60 -381 74 -106 13 -509 9 -561 -5 -36 -9 82 103
143 138 57 31 148 66 202 77 77 15 209 11 289 -10z m26 -364 c253 -44 491
-129 717 -256 130 -73 138 -79 136 -106 -3 -48 -145 -1119 -149 -1123 -2 -2
-52 21 -111 52 -211 109 -438 185 -678 228 -113 20 -163 23 -380 24 -308 0
-456 -22 -713 -106 -51 -17 -95 -29 -97 -27 -5 4 43 1160 48 1164 14 12 329
108 417 128 257 56 564 64 810 22z m-195 -1341 c145 -19 259 -45 398 -91 l108
-36 -5 -37 c-4 -20 -42 -310 -86 -646 -45 -335 -88 -635 -96 -665 -51 -179
-195 -322 -377 -375 -83 -24 -214 -22 -302 6 -144 44 -263 146 -329 281 -62
126 -62 138 -32 833 14 341 26 639 26 662 0 50 -6 47 145 67 138 19 408 19
550 1z"/>
<path d="M3143 3605 c-93 -47 -130 -127 -80 -173 34 -32 70 -28 116 13 31 28
46 35 81 35 37 0 47 -6 90 -50 53 -55 74 -60 114 -29 47 37 30 107 -40 169
-52 45 -93 60 -167 60 -48 0 -76 -6 -114 -25z"/>
<path d="M4424 3501 c-64 -29 -114 -85 -114 -126 0 -78 71 -98 140 -40 69 58
127 48 180 -32 37 -57 130 -26 130 42 0 48 -53 114 -119 148 -67 33 -154 37
-217 8z"/>
<path d="M3680 3482 c-18 -15 -24 -34 -32 -107 -14 -139 3 -205 74 -272 46
-44 96 -63 170 -63 74 0 133 25 179 77 44 51 57 87 68 194 10 101 0 142 -36
153 -19 6 -336 36 -377 36 -13 0 -34 -8 -46 -18z m249 -148 c56 -6 61 -9 61
-31 0 -36 -26 -90 -48 -102 -61 -33 -138 4 -149 71 -11 71 0 76 136 62z"/>
<path d="M3136 3301 c-23 -25 -25 -73 -6 -97 21 -24 52 -33 131 -36 67 -2 73
0 95 26 30 34 30 58 0 92 -21 26 -30 28 -112 32 -81 4 -91 2 -108 -17z"/>
<path d="M4408 3194 c-9 -11 -20 -31 -23 -46 -6 -22 -1 -33 23 -58 26 -26 38
-30 89 -32 32 -1 69 -1 82 0 58 3 86 82 44 124 -17 17 -38 21 -109 25 -78 5
-91 3 -106 -13z"/>
<path d="M1773 3614 c-24 -24 -25 -29 -18 -102 8 -92 27 -126 75 -130 23 -2
39 3 56 19 26 25 30 62 15 153 -14 83 -76 112 -128 60z"/>
<path d="M504 3505 c-24 -24 -25 -29 -18 -102 7 -96 26 -127 77 -131 26 -2 42
3 58 19 20 20 21 28 15 108 -5 76 -9 89 -32 109 -33 29 -69 28 -100 -3z"/>
<path d="M1127 3475 c-164 -15 -172 -21 -169 -127 5 -139 39 -223 109 -270
150 -101 345 -27 383 145 16 69 0 220 -25 247 -21 24 -90 25 -298 5z m177
-151 c26 -68 -26 -144 -99 -144 -38 0 -82 45 -90 91 -4 22 -4 43 -1 47 5 5 41
9 167 21 9 0 20 -6 23 -15z"/>
<path d="M1835 3313 c-69 -6 -84 -12 -100 -43 -19 -37 -11 -76 22 -97 19 -13
39 -14 99 -9 93 9 101 12 119 46 28 53 -16 113 -78 108 -12 -1 -40 -3 -62 -5z"/>
<path d="M558 3201 c-40 -4 -64 -13 -79 -28 -31 -30 -30 -80 2 -106 21 -17 34
-19 102 -14 89 7 114 18 128 54 19 49 -26 106 -79 102 -9 -1 -43 -5 -74 -8z"/>
</g>
</svg>
